<?xml version="1.0" encoding="UTF-8" standalone="no"?>
<svg
   xmlns:dc="http://purl.org/dc/elements/1.1/"
   xmlns:cc="http://creativecommons.org/ns#"
   xmlns:rdf="http://www.w3.org/1999/02/22-rdf-syntax-ns#"
   xmlns:svg="http://www.w3.org/2000/svg"
   xmlns="http://www.w3.org/2000/svg"
   viewBox="0 0 497.77734 236.90533"
   height="236.90533"
   width="497.77734"
   xml:space="preserve"
   id="svg2"
   version="1.1"><metadata
     id="metadata8"><rdf:RDF><cc:Work
         rdf:about=""><dc:format>image/svg+xml</dc:format><dc:type
           rdf:resource="http://purl.org/dc/dcmitype/StillImage" /></cc:Work></rdf:RDF></metadata><defs
     id="defs6"><clipPath
       id="clipPath48"
       clipPathUnits="userSpaceOnUse"><path
         id="path46"
         d="M 0,177.679 H 373.333 V 0 H 0 Z" /></clipPath></defs><g
     transform="matrix(1.3333333,0,0,-1.3333333,0,236.90533)"
     id="g10"><text
       id="text14"
       style="font-variant:normal;font-weight:normal;font-stretch:normal;font-size:53.8288002px;font-family:VNI-Top;-inkscape-font-specification:VNI-Top;writing-mode:lr-tb;fill:#000000;fill-opacity:1;fill-rule:nonzero;stroke:none"
       transform="matrix(1,0,0,-1,60.3989,69.6992)"><tspan
         id="tspan12"
         y="0"
         x="0 44.462589 85.69545 87.848602 134.78731 152.01253 195.82918 231.35619 272.58905 274.74219">Taâm Phaùt</tspan></text>
<text
       id="text18"
       style="font-variant:normal;font-weight:300;font-stretch:normal;font-size:28.53009987px;font-family:VNI-Univer;-inkscape-font-specification:VNI-Univer;writing-mode:lr-tb;fill:#414042;fill-opacity:1;fill-rule:nonzero;stroke:none"
       transform="matrix(1,0,0,-0.84331986,181.356,47.0205)"><tspan
         id="tspan16"
         y="0"
         x="0 20.484612 25.79121 37.260311 42.56691 61.168533 75.148285 76.28949 88.386253 100.82537 106.13197 124.7336 138.71335 144.01994 159.25502 171.35178">Gia Coâng Cô Khí</tspan></text>
<path
       id="path20"
       style="fill:#000000;fill-opacity:1;fill-rule:nonzero;stroke:#231f20;stroke-width:1;stroke-linecap:butt;stroke-linejoin:miter;stroke-miterlimit:10;stroke-dasharray:none;stroke-opacity:1"
       d="m 99.291,140.346 h -27 v 35 h 27 z" /><g
       transform="translate(62.1025,136.1258)"
       id="g22"><path
         id="path24"
         style="fill:#000000;fill-opacity:1;fill-rule:nonzero;stroke:none"
         d="M 0,0 -19.092,-19.092 -43.841,5.657 -24.749,24.749 Z" /></g><g
       transform="translate(62.1025,136.1258)"
       id="g26"><path
         id="path28"
         style="fill:none;stroke:#231f20;stroke-width:1;stroke-linecap:butt;stroke-linejoin:miter;stroke-miterlimit:10;stroke-dasharray:none;stroke-opacity:1"
         d="M 0,0 -19.092,-19.092 -43.841,5.657 -24.749,24.749 Z" /></g><g
       transform="translate(43.0103,69.6576)"
       id="g30"><path
         id="path32"
         style="fill:#000000;fill-opacity:1;fill-rule:nonzero;stroke:none"
         d="M 0,0 19.092,-19.092 -5.657,-43.841 -24.749,-24.749 Z" /></g><g
       transform="translate(43.0103,69.6576)"
       id="g34"><path
         id="path36"
         style="fill:none;stroke:#231f20;stroke-width:1;stroke-linecap:butt;stroke-linejoin:miter;stroke-miterlimit:10;stroke-dasharray:none;stroke-opacity:1"
         d="M 0,0 19.092,-19.092 -5.657,-43.841 -24.749,-24.749 Z" /></g><path
       id="path38"
       style="fill:#000000;fill-opacity:1;fill-rule:nonzero;stroke:#231f20;stroke-width:1;stroke-linecap:butt;stroke-linejoin:miter;stroke-miterlimit:10;stroke-dasharray:none;stroke-opacity:1"
       d="m 72.291,46.346 h 27 v -35 h -27 z" /><path
       id="path40"
       style="fill:#000000;fill-opacity:1;fill-rule:nonzero;stroke:#231f20;stroke-width:1;stroke-linecap:butt;stroke-linejoin:miter;stroke-miterlimit:10;stroke-dasharray:none;stroke-opacity:1"
       d="m 38.791,79.846 h -35 v 27 h 35 z" /><g
       id="g42"><g
         clip-path="url(#clipPath48)"
         id="g44"><g
           transform="translate(123.3389,55.7972)"
           id="g50"><path
             id="path52"
             style="fill:none;stroke:#070707;stroke-width:18;stroke-linecap:butt;stroke-linejoin:miter;stroke-miterlimit:10;stroke-dasharray:none;stroke-opacity:1"
             d="m 0,0 c -20.737,-20.737 -54.359,-20.737 -75.097,0 -20.737,20.737 -20.737,54.359 0,75.097 20.738,20.737 54.36,20.737 75.097,0 2.093,-2.094 3.976,-4.319 5.646,-6.648" /></g></g></g></g></svg>